%TF.GenerationSoftware,KiCad,Pcbnew,9.0.7*%
%TF.CreationDate,2026-02-12T14:24:41+09:00*%
%TF.ProjectId,ASW_E44s_2.0,4153575f-4534-4347-935f-322e302e6b69,rev?*%
%TF.SameCoordinates,Original*%
%TF.FileFunction,Legend,Bot*%
%TF.FilePolarity,Positive*%
%FSLAX46Y46*%
G04 Gerber Fmt 4.6, Leading zero omitted, Abs format (unit mm)*
G04 Created by KiCad (PCBNEW 9.0.7) date 2026-02-12 14:24:41*
%MOMM*%
%LPD*%
G01*
G04 APERTURE LIST*
%ADD10C,0.200000*%
%ADD11C,0.150000*%
%ADD12C,0.120000*%
G04 APERTURE END LIST*
D10*
X142800000Y-109425000D02*
G75*
G02*
X132800000Y-109425000I-5000000J0D01*
G01*
X132800000Y-109425000D02*
G75*
G02*
X142800000Y-109425000I5000000J0D01*
G01*
D11*
X167163220Y-116469819D02*
X167163220Y-115469819D01*
X167163220Y-115469819D02*
X166829887Y-116184104D01*
X166829887Y-116184104D02*
X166496554Y-115469819D01*
X166496554Y-115469819D02*
X166496554Y-116469819D01*
X165877506Y-116469819D02*
X165972744Y-116422200D01*
X165972744Y-116422200D02*
X166020363Y-116374580D01*
X166020363Y-116374580D02*
X166067982Y-116279342D01*
X166067982Y-116279342D02*
X166067982Y-115993628D01*
X166067982Y-115993628D02*
X166020363Y-115898390D01*
X166020363Y-115898390D02*
X165972744Y-115850771D01*
X165972744Y-115850771D02*
X165877506Y-115803152D01*
X165877506Y-115803152D02*
X165734649Y-115803152D01*
X165734649Y-115803152D02*
X165639411Y-115850771D01*
X165639411Y-115850771D02*
X165591792Y-115898390D01*
X165591792Y-115898390D02*
X165544173Y-115993628D01*
X165544173Y-115993628D02*
X165544173Y-116279342D01*
X165544173Y-116279342D02*
X165591792Y-116374580D01*
X165591792Y-116374580D02*
X165639411Y-116422200D01*
X165639411Y-116422200D02*
X165734649Y-116469819D01*
X165734649Y-116469819D02*
X165877506Y-116469819D01*
X165258458Y-115803152D02*
X164877506Y-115803152D01*
X165115601Y-115469819D02*
X165115601Y-116326961D01*
X165115601Y-116326961D02*
X165067982Y-116422200D01*
X165067982Y-116422200D02*
X164972744Y-116469819D01*
X164972744Y-116469819D02*
X164877506Y-116469819D01*
X164401315Y-116469819D02*
X164496553Y-116422200D01*
X164496553Y-116422200D02*
X164544172Y-116374580D01*
X164544172Y-116374580D02*
X164591791Y-116279342D01*
X164591791Y-116279342D02*
X164591791Y-115993628D01*
X164591791Y-115993628D02*
X164544172Y-115898390D01*
X164544172Y-115898390D02*
X164496553Y-115850771D01*
X164496553Y-115850771D02*
X164401315Y-115803152D01*
X164401315Y-115803152D02*
X164258458Y-115803152D01*
X164258458Y-115803152D02*
X164163220Y-115850771D01*
X164163220Y-115850771D02*
X164115601Y-115898390D01*
X164115601Y-115898390D02*
X164067982Y-115993628D01*
X164067982Y-115993628D02*
X164067982Y-116279342D01*
X164067982Y-116279342D02*
X164115601Y-116374580D01*
X164115601Y-116374580D02*
X164163220Y-116422200D01*
X164163220Y-116422200D02*
X164258458Y-116469819D01*
X164258458Y-116469819D02*
X164401315Y-116469819D01*
X163639410Y-116469819D02*
X163639410Y-115803152D01*
X163639410Y-115993628D02*
X163591791Y-115898390D01*
X163591791Y-115898390D02*
X163544172Y-115850771D01*
X163544172Y-115850771D02*
X163448934Y-115803152D01*
X163448934Y-115803152D02*
X163353696Y-115803152D01*
D10*
X126402945Y-88344600D02*
X126260088Y-88392219D01*
X126260088Y-88392219D02*
X126021993Y-88392219D01*
X126021993Y-88392219D02*
X125926755Y-88344600D01*
X125926755Y-88344600D02*
X125879136Y-88296980D01*
X125879136Y-88296980D02*
X125831517Y-88201742D01*
X125831517Y-88201742D02*
X125831517Y-88106504D01*
X125831517Y-88106504D02*
X125879136Y-88011266D01*
X125879136Y-88011266D02*
X125926755Y-87963647D01*
X125926755Y-87963647D02*
X126021993Y-87916028D01*
X126021993Y-87916028D02*
X126212469Y-87868409D01*
X126212469Y-87868409D02*
X126307707Y-87820790D01*
X126307707Y-87820790D02*
X126355326Y-87773171D01*
X126355326Y-87773171D02*
X126402945Y-87677933D01*
X126402945Y-87677933D02*
X126402945Y-87582695D01*
X126402945Y-87582695D02*
X126355326Y-87487457D01*
X126355326Y-87487457D02*
X126307707Y-87439838D01*
X126307707Y-87439838D02*
X126212469Y-87392219D01*
X126212469Y-87392219D02*
X125974374Y-87392219D01*
X125974374Y-87392219D02*
X125831517Y-87439838D01*
X117983898Y-83342219D02*
X118317231Y-82866028D01*
X118555326Y-83342219D02*
X118555326Y-82342219D01*
X118555326Y-82342219D02*
X118174374Y-82342219D01*
X118174374Y-82342219D02*
X118079136Y-82389838D01*
X118079136Y-82389838D02*
X118031517Y-82437457D01*
X118031517Y-82437457D02*
X117983898Y-82532695D01*
X117983898Y-82532695D02*
X117983898Y-82675552D01*
X117983898Y-82675552D02*
X118031517Y-82770790D01*
X118031517Y-82770790D02*
X118079136Y-82818409D01*
X118079136Y-82818409D02*
X118174374Y-82866028D01*
X118174374Y-82866028D02*
X118555326Y-82866028D01*
X84954136Y-97067219D02*
X85430326Y-97067219D01*
X85430326Y-97067219D02*
X85477945Y-97543409D01*
X85477945Y-97543409D02*
X85430326Y-97495790D01*
X85430326Y-97495790D02*
X85335088Y-97448171D01*
X85335088Y-97448171D02*
X85096993Y-97448171D01*
X85096993Y-97448171D02*
X85001755Y-97495790D01*
X85001755Y-97495790D02*
X84954136Y-97543409D01*
X84954136Y-97543409D02*
X84906517Y-97638647D01*
X84906517Y-97638647D02*
X84906517Y-97876742D01*
X84906517Y-97876742D02*
X84954136Y-97971980D01*
X84954136Y-97971980D02*
X85001755Y-98019600D01*
X85001755Y-98019600D02*
X85096993Y-98067219D01*
X85096993Y-98067219D02*
X85335088Y-98067219D01*
X85335088Y-98067219D02*
X85430326Y-98019600D01*
X85430326Y-98019600D02*
X85477945Y-97971980D01*
X84573183Y-97400552D02*
X84335088Y-98067219D01*
X84335088Y-98067219D02*
X84096993Y-97400552D01*
X125430326Y-91517219D02*
X125430326Y-90517219D01*
X125430326Y-90517219D02*
X125096993Y-91231504D01*
X125096993Y-91231504D02*
X124763660Y-90517219D01*
X124763660Y-90517219D02*
X124763660Y-91517219D01*
X124287469Y-91517219D02*
X124287469Y-90517219D01*
X123811279Y-91517219D02*
X123811279Y-90517219D01*
X123811279Y-90517219D02*
X123573184Y-90517219D01*
X123573184Y-90517219D02*
X123430327Y-90564838D01*
X123430327Y-90564838D02*
X123335089Y-90660076D01*
X123335089Y-90660076D02*
X123287470Y-90755314D01*
X123287470Y-90755314D02*
X123239851Y-90945790D01*
X123239851Y-90945790D02*
X123239851Y-91088647D01*
X123239851Y-91088647D02*
X123287470Y-91279123D01*
X123287470Y-91279123D02*
X123335089Y-91374361D01*
X123335089Y-91374361D02*
X123430327Y-91469600D01*
X123430327Y-91469600D02*
X123573184Y-91517219D01*
X123573184Y-91517219D02*
X123811279Y-91517219D01*
X122811279Y-91517219D02*
X122811279Y-90517219D01*
X121144613Y-91517219D02*
X121144613Y-90517219D01*
X121144613Y-91469600D02*
X121239851Y-91517219D01*
X121239851Y-91517219D02*
X121430327Y-91517219D01*
X121430327Y-91517219D02*
X121525565Y-91469600D01*
X121525565Y-91469600D02*
X121573184Y-91421980D01*
X121573184Y-91421980D02*
X121620803Y-91326742D01*
X121620803Y-91326742D02*
X121620803Y-91041028D01*
X121620803Y-91041028D02*
X121573184Y-90945790D01*
X121573184Y-90945790D02*
X121525565Y-90898171D01*
X121525565Y-90898171D02*
X121430327Y-90850552D01*
X121430327Y-90850552D02*
X121239851Y-90850552D01*
X121239851Y-90850552D02*
X121144613Y-90898171D01*
X120668422Y-91517219D02*
X120668422Y-90850552D01*
X120668422Y-90517219D02*
X120716041Y-90564838D01*
X120716041Y-90564838D02*
X120668422Y-90612457D01*
X120668422Y-90612457D02*
X120620803Y-90564838D01*
X120620803Y-90564838D02*
X120668422Y-90517219D01*
X120668422Y-90517219D02*
X120668422Y-90612457D01*
X120192232Y-90850552D02*
X120192232Y-91517219D01*
X120192232Y-90945790D02*
X120144613Y-90898171D01*
X120144613Y-90898171D02*
X120049375Y-90850552D01*
X120049375Y-90850552D02*
X119906518Y-90850552D01*
X119906518Y-90850552D02*
X119811280Y-90898171D01*
X119811280Y-90898171D02*
X119763661Y-90993409D01*
X119763661Y-90993409D02*
X119763661Y-91517219D01*
X118382708Y-91517219D02*
X118477946Y-91469600D01*
X118477946Y-91469600D02*
X118525565Y-91421980D01*
X118525565Y-91421980D02*
X118573184Y-91326742D01*
X118573184Y-91326742D02*
X118573184Y-91041028D01*
X118573184Y-91041028D02*
X118525565Y-90945790D01*
X118525565Y-90945790D02*
X118477946Y-90898171D01*
X118477946Y-90898171D02*
X118382708Y-90850552D01*
X118382708Y-90850552D02*
X118239851Y-90850552D01*
X118239851Y-90850552D02*
X118144613Y-90898171D01*
X118144613Y-90898171D02*
X118096994Y-90945790D01*
X118096994Y-90945790D02*
X118049375Y-91041028D01*
X118049375Y-91041028D02*
X118049375Y-91326742D01*
X118049375Y-91326742D02*
X118096994Y-91421980D01*
X118096994Y-91421980D02*
X118144613Y-91469600D01*
X118144613Y-91469600D02*
X118239851Y-91517219D01*
X118239851Y-91517219D02*
X118382708Y-91517219D01*
X117192232Y-90850552D02*
X117192232Y-91517219D01*
X117620803Y-90850552D02*
X117620803Y-91374361D01*
X117620803Y-91374361D02*
X117573184Y-91469600D01*
X117573184Y-91469600D02*
X117477946Y-91517219D01*
X117477946Y-91517219D02*
X117335089Y-91517219D01*
X117335089Y-91517219D02*
X117239851Y-91469600D01*
X117239851Y-91469600D02*
X117192232Y-91421980D01*
X116858898Y-90850552D02*
X116477946Y-90850552D01*
X116716041Y-90517219D02*
X116716041Y-91374361D01*
X116716041Y-91374361D02*
X116668422Y-91469600D01*
X116668422Y-91469600D02*
X116573184Y-91517219D01*
X116573184Y-91517219D02*
X116477946Y-91517219D01*
X115096993Y-91850552D02*
X115335088Y-91850552D01*
X115335088Y-91850552D02*
X115335088Y-90421980D01*
X115335088Y-90421980D02*
X115096993Y-90421980D01*
X114858897Y-90517219D02*
X114287469Y-90517219D01*
X114573183Y-91517219D02*
X114573183Y-90517219D01*
X114049373Y-90850552D02*
X113811278Y-91517219D01*
X113573183Y-90850552D02*
X113811278Y-91517219D01*
X113811278Y-91517219D02*
X113906516Y-91755314D01*
X113906516Y-91755314D02*
X113954135Y-91802933D01*
X113954135Y-91802933D02*
X114049373Y-91850552D01*
X113192230Y-90850552D02*
X113192230Y-91850552D01*
X113192230Y-90898171D02*
X113096992Y-90850552D01*
X113096992Y-90850552D02*
X112906516Y-90850552D01*
X112906516Y-90850552D02*
X112811278Y-90898171D01*
X112811278Y-90898171D02*
X112763659Y-90945790D01*
X112763659Y-90945790D02*
X112716040Y-91041028D01*
X112716040Y-91041028D02*
X112716040Y-91326742D01*
X112716040Y-91326742D02*
X112763659Y-91421980D01*
X112763659Y-91421980D02*
X112811278Y-91469600D01*
X112811278Y-91469600D02*
X112906516Y-91517219D01*
X112906516Y-91517219D02*
X113096992Y-91517219D01*
X113096992Y-91517219D02*
X113192230Y-91469600D01*
X111906516Y-91469600D02*
X112001754Y-91517219D01*
X112001754Y-91517219D02*
X112192230Y-91517219D01*
X112192230Y-91517219D02*
X112287468Y-91469600D01*
X112287468Y-91469600D02*
X112335087Y-91374361D01*
X112335087Y-91374361D02*
X112335087Y-90993409D01*
X112335087Y-90993409D02*
X112287468Y-90898171D01*
X112287468Y-90898171D02*
X112192230Y-90850552D01*
X112192230Y-90850552D02*
X112001754Y-90850552D01*
X112001754Y-90850552D02*
X111906516Y-90898171D01*
X111906516Y-90898171D02*
X111858897Y-90993409D01*
X111858897Y-90993409D02*
X111858897Y-91088647D01*
X111858897Y-91088647D02*
X112335087Y-91183885D01*
X110716039Y-91231504D02*
X110239849Y-91231504D01*
X110811277Y-91517219D02*
X110477944Y-90517219D01*
X110477944Y-90517219D02*
X110144611Y-91517219D01*
X109906515Y-91850552D02*
X109668420Y-91850552D01*
X109668420Y-91850552D02*
X109668420Y-90421980D01*
X109668420Y-90421980D02*
X109906515Y-90421980D01*
D11*
X139738220Y-109969819D02*
X139738220Y-108969819D01*
X139738220Y-108969819D02*
X139404887Y-109684104D01*
X139404887Y-109684104D02*
X139071554Y-108969819D01*
X139071554Y-108969819D02*
X139071554Y-109969819D01*
X138452506Y-109969819D02*
X138547744Y-109922200D01*
X138547744Y-109922200D02*
X138595363Y-109874580D01*
X138595363Y-109874580D02*
X138642982Y-109779342D01*
X138642982Y-109779342D02*
X138642982Y-109493628D01*
X138642982Y-109493628D02*
X138595363Y-109398390D01*
X138595363Y-109398390D02*
X138547744Y-109350771D01*
X138547744Y-109350771D02*
X138452506Y-109303152D01*
X138452506Y-109303152D02*
X138309649Y-109303152D01*
X138309649Y-109303152D02*
X138214411Y-109350771D01*
X138214411Y-109350771D02*
X138166792Y-109398390D01*
X138166792Y-109398390D02*
X138119173Y-109493628D01*
X138119173Y-109493628D02*
X138119173Y-109779342D01*
X138119173Y-109779342D02*
X138166792Y-109874580D01*
X138166792Y-109874580D02*
X138214411Y-109922200D01*
X138214411Y-109922200D02*
X138309649Y-109969819D01*
X138309649Y-109969819D02*
X138452506Y-109969819D01*
X137833458Y-109303152D02*
X137452506Y-109303152D01*
X137690601Y-108969819D02*
X137690601Y-109826961D01*
X137690601Y-109826961D02*
X137642982Y-109922200D01*
X137642982Y-109922200D02*
X137547744Y-109969819D01*
X137547744Y-109969819D02*
X137452506Y-109969819D01*
X136976315Y-109969819D02*
X137071553Y-109922200D01*
X137071553Y-109922200D02*
X137119172Y-109874580D01*
X137119172Y-109874580D02*
X137166791Y-109779342D01*
X137166791Y-109779342D02*
X137166791Y-109493628D01*
X137166791Y-109493628D02*
X137119172Y-109398390D01*
X137119172Y-109398390D02*
X137071553Y-109350771D01*
X137071553Y-109350771D02*
X136976315Y-109303152D01*
X136976315Y-109303152D02*
X136833458Y-109303152D01*
X136833458Y-109303152D02*
X136738220Y-109350771D01*
X136738220Y-109350771D02*
X136690601Y-109398390D01*
X136690601Y-109398390D02*
X136642982Y-109493628D01*
X136642982Y-109493628D02*
X136642982Y-109779342D01*
X136642982Y-109779342D02*
X136690601Y-109874580D01*
X136690601Y-109874580D02*
X136738220Y-109922200D01*
X136738220Y-109922200D02*
X136833458Y-109969819D01*
X136833458Y-109969819D02*
X136976315Y-109969819D01*
X136214410Y-109969819D02*
X136214410Y-109303152D01*
X136214410Y-109493628D02*
X136166791Y-109398390D01*
X136166791Y-109398390D02*
X136119172Y-109350771D01*
X136119172Y-109350771D02*
X136023934Y-109303152D01*
X136023934Y-109303152D02*
X135928696Y-109303152D01*
X194380180Y-87713220D02*
X195380180Y-87713220D01*
X195380180Y-87713220D02*
X194665895Y-87379887D01*
X194665895Y-87379887D02*
X195380180Y-87046554D01*
X195380180Y-87046554D02*
X194380180Y-87046554D01*
X194475419Y-85998935D02*
X194427800Y-86046554D01*
X194427800Y-86046554D02*
X194380180Y-86189411D01*
X194380180Y-86189411D02*
X194380180Y-86284649D01*
X194380180Y-86284649D02*
X194427800Y-86427506D01*
X194427800Y-86427506D02*
X194523038Y-86522744D01*
X194523038Y-86522744D02*
X194618276Y-86570363D01*
X194618276Y-86570363D02*
X194808752Y-86617982D01*
X194808752Y-86617982D02*
X194951609Y-86617982D01*
X194951609Y-86617982D02*
X195142085Y-86570363D01*
X195142085Y-86570363D02*
X195237323Y-86522744D01*
X195237323Y-86522744D02*
X195332561Y-86427506D01*
X195332561Y-86427506D02*
X195380180Y-86284649D01*
X195380180Y-86284649D02*
X195380180Y-86189411D01*
X195380180Y-86189411D02*
X195332561Y-86046554D01*
X195332561Y-86046554D02*
X195284942Y-85998935D01*
X194761133Y-85570363D02*
X194761133Y-84808459D01*
X194903990Y-84332268D02*
X194903990Y-83998935D01*
X194380180Y-83856078D02*
X194380180Y-84332268D01*
X194380180Y-84332268D02*
X195380180Y-84332268D01*
X195380180Y-84332268D02*
X195380180Y-83856078D01*
X195046847Y-82998935D02*
X194380180Y-82998935D01*
X195427800Y-83237030D02*
X194713514Y-83475125D01*
X194713514Y-83475125D02*
X194713514Y-82856078D01*
X195046847Y-82046554D02*
X194380180Y-82046554D01*
X195427800Y-82284649D02*
X194713514Y-82522744D01*
X194713514Y-82522744D02*
X194713514Y-81903697D01*
X194427800Y-81570363D02*
X194380180Y-81475125D01*
X194380180Y-81475125D02*
X194380180Y-81284649D01*
X194380180Y-81284649D02*
X194427800Y-81189411D01*
X194427800Y-81189411D02*
X194523038Y-81141792D01*
X194523038Y-81141792D02*
X194570657Y-81141792D01*
X194570657Y-81141792D02*
X194665895Y-81189411D01*
X194665895Y-81189411D02*
X194713514Y-81284649D01*
X194713514Y-81284649D02*
X194713514Y-81427506D01*
X194713514Y-81427506D02*
X194761133Y-81522744D01*
X194761133Y-81522744D02*
X194856371Y-81570363D01*
X194856371Y-81570363D02*
X194903990Y-81570363D01*
X194903990Y-81570363D02*
X194999228Y-81522744D01*
X194999228Y-81522744D02*
X195046847Y-81427506D01*
X195046847Y-81427506D02*
X195046847Y-81284649D01*
X195046847Y-81284649D02*
X194999228Y-81189411D01*
X164863220Y-109088866D02*
X164101316Y-109088866D01*
X164482268Y-109469819D02*
X164482268Y-108707914D01*
D10*
X86725564Y-94317219D02*
X86106517Y-94317219D01*
X86106517Y-94317219D02*
X86439850Y-94698171D01*
X86439850Y-94698171D02*
X86296993Y-94698171D01*
X86296993Y-94698171D02*
X86201755Y-94745790D01*
X86201755Y-94745790D02*
X86154136Y-94793409D01*
X86154136Y-94793409D02*
X86106517Y-94888647D01*
X86106517Y-94888647D02*
X86106517Y-95126742D01*
X86106517Y-95126742D02*
X86154136Y-95221980D01*
X86154136Y-95221980D02*
X86201755Y-95269600D01*
X86201755Y-95269600D02*
X86296993Y-95317219D01*
X86296993Y-95317219D02*
X86582707Y-95317219D01*
X86582707Y-95317219D02*
X86677945Y-95269600D01*
X86677945Y-95269600D02*
X86725564Y-95221980D01*
X85677945Y-95221980D02*
X85630326Y-95269600D01*
X85630326Y-95269600D02*
X85677945Y-95317219D01*
X85677945Y-95317219D02*
X85725564Y-95269600D01*
X85725564Y-95269600D02*
X85677945Y-95221980D01*
X85677945Y-95221980D02*
X85677945Y-95317219D01*
X85296993Y-94317219D02*
X84677946Y-94317219D01*
X84677946Y-94317219D02*
X85011279Y-94698171D01*
X85011279Y-94698171D02*
X84868422Y-94698171D01*
X84868422Y-94698171D02*
X84773184Y-94745790D01*
X84773184Y-94745790D02*
X84725565Y-94793409D01*
X84725565Y-94793409D02*
X84677946Y-94888647D01*
X84677946Y-94888647D02*
X84677946Y-95126742D01*
X84677946Y-95126742D02*
X84725565Y-95221980D01*
X84725565Y-95221980D02*
X84773184Y-95269600D01*
X84773184Y-95269600D02*
X84868422Y-95317219D01*
X84868422Y-95317219D02*
X85154136Y-95317219D01*
X85154136Y-95317219D02*
X85249374Y-95269600D01*
X85249374Y-95269600D02*
X85296993Y-95221980D01*
X84344612Y-94650552D02*
X84106517Y-95317219D01*
X84106517Y-95317219D02*
X83868422Y-94650552D01*
X118523183Y-86492219D02*
X117951755Y-86492219D01*
X118237469Y-87492219D02*
X118237469Y-86492219D01*
D11*
X124004819Y-80091666D02*
X124719104Y-80091666D01*
X124719104Y-80091666D02*
X124861961Y-80044047D01*
X124861961Y-80044047D02*
X124957200Y-79948809D01*
X124957200Y-79948809D02*
X125004819Y-79805952D01*
X125004819Y-79805952D02*
X125004819Y-79710714D01*
X124004819Y-80472619D02*
X124004819Y-81091666D01*
X124004819Y-81091666D02*
X124385771Y-80758333D01*
X124385771Y-80758333D02*
X124385771Y-80901190D01*
X124385771Y-80901190D02*
X124433390Y-80996428D01*
X124433390Y-80996428D02*
X124481009Y-81044047D01*
X124481009Y-81044047D02*
X124576247Y-81091666D01*
X124576247Y-81091666D02*
X124814342Y-81091666D01*
X124814342Y-81091666D02*
X124909580Y-81044047D01*
X124909580Y-81044047D02*
X124957200Y-80996428D01*
X124957200Y-80996428D02*
X125004819Y-80901190D01*
X125004819Y-80901190D02*
X125004819Y-80615476D01*
X125004819Y-80615476D02*
X124957200Y-80520238D01*
X124957200Y-80520238D02*
X124909580Y-80472619D01*
X170333333Y-113454819D02*
X170333333Y-114169104D01*
X170333333Y-114169104D02*
X170380952Y-114311961D01*
X170380952Y-114311961D02*
X170476190Y-114407200D01*
X170476190Y-114407200D02*
X170619047Y-114454819D01*
X170619047Y-114454819D02*
X170714285Y-114454819D01*
X169904761Y-113550057D02*
X169857142Y-113502438D01*
X169857142Y-113502438D02*
X169761904Y-113454819D01*
X169761904Y-113454819D02*
X169523809Y-113454819D01*
X169523809Y-113454819D02*
X169428571Y-113502438D01*
X169428571Y-113502438D02*
X169380952Y-113550057D01*
X169380952Y-113550057D02*
X169333333Y-113645295D01*
X169333333Y-113645295D02*
X169333333Y-113740533D01*
X169333333Y-113740533D02*
X169380952Y-113883390D01*
X169380952Y-113883390D02*
X169952380Y-114454819D01*
X169952380Y-114454819D02*
X169333333Y-114454819D01*
X77359580Y-86333333D02*
X77407200Y-86285714D01*
X77407200Y-86285714D02*
X77454819Y-86142857D01*
X77454819Y-86142857D02*
X77454819Y-86047619D01*
X77454819Y-86047619D02*
X77407200Y-85904762D01*
X77407200Y-85904762D02*
X77311961Y-85809524D01*
X77311961Y-85809524D02*
X77216723Y-85761905D01*
X77216723Y-85761905D02*
X77026247Y-85714286D01*
X77026247Y-85714286D02*
X76883390Y-85714286D01*
X76883390Y-85714286D02*
X76692914Y-85761905D01*
X76692914Y-85761905D02*
X76597676Y-85809524D01*
X76597676Y-85809524D02*
X76502438Y-85904762D01*
X76502438Y-85904762D02*
X76454819Y-86047619D01*
X76454819Y-86047619D02*
X76454819Y-86142857D01*
X76454819Y-86142857D02*
X76502438Y-86285714D01*
X76502438Y-86285714D02*
X76550057Y-86333333D01*
X77454819Y-87285714D02*
X77454819Y-86714286D01*
X77454819Y-87000000D02*
X76454819Y-87000000D01*
X76454819Y-87000000D02*
X76597676Y-86904762D01*
X76597676Y-86904762D02*
X76692914Y-86809524D01*
X76692914Y-86809524D02*
X76740533Y-86714286D01*
X77359580Y-96333333D02*
X77407200Y-96285714D01*
X77407200Y-96285714D02*
X77454819Y-96142857D01*
X77454819Y-96142857D02*
X77454819Y-96047619D01*
X77454819Y-96047619D02*
X77407200Y-95904762D01*
X77407200Y-95904762D02*
X77311961Y-95809524D01*
X77311961Y-95809524D02*
X77216723Y-95761905D01*
X77216723Y-95761905D02*
X77026247Y-95714286D01*
X77026247Y-95714286D02*
X76883390Y-95714286D01*
X76883390Y-95714286D02*
X76692914Y-95761905D01*
X76692914Y-95761905D02*
X76597676Y-95809524D01*
X76597676Y-95809524D02*
X76502438Y-95904762D01*
X76502438Y-95904762D02*
X76454819Y-96047619D01*
X76454819Y-96047619D02*
X76454819Y-96142857D01*
X76454819Y-96142857D02*
X76502438Y-96285714D01*
X76502438Y-96285714D02*
X76550057Y-96333333D01*
X76550057Y-96714286D02*
X76502438Y-96761905D01*
X76502438Y-96761905D02*
X76454819Y-96857143D01*
X76454819Y-96857143D02*
X76454819Y-97095238D01*
X76454819Y-97095238D02*
X76502438Y-97190476D01*
X76502438Y-97190476D02*
X76550057Y-97238095D01*
X76550057Y-97238095D02*
X76645295Y-97285714D01*
X76645295Y-97285714D02*
X76740533Y-97285714D01*
X76740533Y-97285714D02*
X76883390Y-97238095D01*
X76883390Y-97238095D02*
X77454819Y-96666667D01*
X77454819Y-96666667D02*
X77454819Y-97285714D01*
D12*
%TO.C,J3*%
X119675000Y-74775000D02*
X119675000Y-76775000D01*
X119975000Y-74775000D02*
X119675000Y-74775000D01*
X119975000Y-74775000D02*
X124675000Y-74775000D01*
X124675000Y-74775000D02*
X124675000Y-76775000D01*
X118875000Y-76775000D02*
X118875000Y-89775000D01*
X119675000Y-76775000D02*
X118875000Y-76775000D01*
X124675000Y-76775000D02*
X125475000Y-76775000D01*
X125475000Y-76775000D02*
X125475000Y-89775000D01*
X118875000Y-89775000D02*
X125475000Y-89775000D01*
%TO.C,J2*%
X162140000Y-115160000D02*
X162140000Y-113910000D01*
X162440000Y-112250000D02*
X163050000Y-112250000D01*
X162440000Y-113550000D02*
X163050000Y-113550000D01*
X163050000Y-110750000D02*
X167950000Y-110750000D01*
X163050000Y-114250000D02*
X163050000Y-110750000D01*
X163390000Y-115160000D02*
X162140000Y-115160000D01*
X163900000Y-115060000D02*
X163900000Y-114860000D01*
X164200000Y-114860000D02*
X164200000Y-115060000D01*
X164200000Y-114960000D02*
X163900000Y-114960000D01*
X164200000Y-115060000D02*
X163900000Y-115060000D01*
X165000000Y-114250000D02*
X163050000Y-114250000D01*
X165000000Y-114860000D02*
X165000000Y-114250000D01*
X165400000Y-110750000D02*
X165400000Y-111250000D01*
X165400000Y-111250000D02*
X165600000Y-111250000D01*
X165500000Y-110750000D02*
X165500000Y-111250000D01*
X165600000Y-111250000D02*
X165600000Y-110750000D01*
X166000000Y-114250000D02*
X166000000Y-114860000D01*
X167950000Y-110750000D02*
X167950000Y-114250000D01*
X167950000Y-114250000D02*
X166000000Y-114250000D01*
X168560000Y-112250000D02*
X167950000Y-112250000D01*
X168560000Y-113550000D02*
X167950000Y-113550000D01*
X162440000Y-114860000D02*
X168560000Y-114860000D01*
X168560000Y-110140000D01*
X162440000Y-110140000D01*
X162440000Y-114860000D01*
%TO.C,C1*%
X76420000Y-91597349D02*
X84580000Y-91597349D01*
X76420000Y-91637349D02*
X84580000Y-91637349D01*
X76421000Y-91677349D02*
X84579000Y-91677349D01*
X76422000Y-91717349D02*
X84578000Y-91717349D01*
X76423000Y-91757349D02*
X84577000Y-91757349D01*
X76425000Y-91797349D02*
X84575000Y-91797349D01*
X76427000Y-91837349D02*
X84573000Y-91837349D01*
X76430000Y-91877349D02*
X84570000Y-91877349D01*
X76432000Y-91917349D02*
X84568000Y-91917349D01*
X76436000Y-91957349D02*
X84564000Y-91957349D01*
X76439000Y-91997349D02*
X84561000Y-91997349D01*
X76444000Y-92037349D02*
X84556000Y-92037349D01*
X76448000Y-92077349D02*
X84552000Y-92077349D01*
X76453000Y-92117349D02*
X84547000Y-92117349D01*
X76458000Y-92157349D02*
X84542000Y-92157349D01*
X76464000Y-92197349D02*
X84536000Y-92197349D01*
X76470000Y-92237349D02*
X84530000Y-92237349D01*
X76477000Y-92277349D02*
X84523000Y-92277349D01*
X76483000Y-92317349D02*
X79460000Y-92317349D01*
X76491000Y-92357349D02*
X79460000Y-92357349D01*
X76498000Y-92397349D02*
X79460000Y-92397349D01*
X76507000Y-92437349D02*
X79460000Y-92437349D01*
X76515000Y-92477349D02*
X79460000Y-92477349D01*
X76524000Y-92517349D02*
X79460000Y-92517349D01*
X76533000Y-92557349D02*
X79460000Y-92557349D01*
X76543000Y-92597349D02*
X79460000Y-92597349D01*
X76553000Y-92637349D02*
X79460000Y-92637349D01*
X76564000Y-92677349D02*
X79460000Y-92677349D01*
X76575000Y-92717349D02*
X79460000Y-92717349D01*
X76587000Y-92757349D02*
X79460000Y-92757349D01*
X76599000Y-92797349D02*
X79460000Y-92797349D01*
X76611000Y-92837349D02*
X79460000Y-92837349D01*
X76624000Y-92877349D02*
X79460000Y-92877349D01*
X76637000Y-92917349D02*
X79460000Y-92917349D01*
X76651000Y-92957349D02*
X79460000Y-92957349D01*
X76665000Y-92997349D02*
X79460000Y-92997349D01*
X76680000Y-93037349D02*
X79460000Y-93037349D01*
X76695000Y-93077349D02*
X79460000Y-93077349D01*
X76711000Y-93117349D02*
X79460000Y-93117349D01*
X76727000Y-93157349D02*
X79460000Y-93157349D01*
X76743000Y-93197349D02*
X79460000Y-93197349D01*
X76760000Y-93237349D02*
X79460000Y-93237349D01*
X76778000Y-93277349D02*
X79460000Y-93277349D01*
X76796000Y-93317349D02*
X79460000Y-93317349D01*
X76815000Y-93357349D02*
X79460000Y-93357349D01*
X76834000Y-93397349D02*
X79460000Y-93397349D01*
X76854000Y-93437349D02*
X79460000Y-93437349D01*
X76874000Y-93477349D02*
X79460000Y-93477349D01*
X76895000Y-93517349D02*
X79460000Y-93517349D01*
X76916000Y-93557349D02*
X79460000Y-93557349D01*
X76938000Y-93597349D02*
X79460000Y-93597349D01*
X76961000Y-93637349D02*
X79460000Y-93637349D01*
X76984000Y-93677349D02*
X79460000Y-93677349D01*
X77007000Y-93717349D02*
X79460000Y-93717349D01*
X77032000Y-93757349D02*
X79460000Y-93757349D01*
X77057000Y-93797349D02*
X79460000Y-93797349D01*
X77082000Y-93837349D02*
X79460000Y-93837349D01*
X77108000Y-93877349D02*
X79460000Y-93877349D01*
X77135000Y-93917349D02*
X79460000Y-93917349D01*
X77163000Y-93957349D02*
X79460000Y-93957349D01*
X77191000Y-93997349D02*
X79460000Y-93997349D01*
X77220000Y-94037349D02*
X79460000Y-94037349D01*
X77250000Y-94077349D02*
X79460000Y-94077349D01*
X77281000Y-94117349D02*
X79460000Y-94117349D01*
X77312000Y-94157349D02*
X79460000Y-94157349D01*
X77344000Y-94197349D02*
X79460000Y-94197349D01*
X77377000Y-94237349D02*
X79460000Y-94237349D01*
X77411000Y-94277349D02*
X79460000Y-94277349D01*
X77445000Y-94317349D02*
X79460000Y-94317349D01*
X77481000Y-94357349D02*
X79460000Y-94357349D01*
X77518000Y-94397349D02*
X83482000Y-94397349D01*
X77555000Y-94437349D02*
X83445000Y-94437349D01*
X77594000Y-94477349D02*
X83406000Y-94477349D01*
X77633000Y-94517349D02*
X83367000Y-94517349D01*
X77674000Y-94557349D02*
X83326000Y-94557349D01*
X77716000Y-94597349D02*
X83284000Y-94597349D01*
X77759000Y-94637349D02*
X83241000Y-94637349D01*
X77785000Y-87587651D02*
X78585000Y-87587651D01*
X77804000Y-94677349D02*
X83196000Y-94677349D01*
X77849000Y-94717349D02*
X83151000Y-94717349D01*
X77896000Y-94757349D02*
X83104000Y-94757349D01*
X77945000Y-94797349D02*
X83055000Y-94797349D01*
X77995000Y-94837349D02*
X83005000Y-94837349D01*
X78047000Y-94877349D02*
X82953000Y-94877349D01*
X78100000Y-94917349D02*
X82900000Y-94917349D01*
X78156000Y-94957349D02*
X82844000Y-94957349D01*
X78185000Y-87187651D02*
X78185000Y-87987651D01*
X78213000Y-94997349D02*
X82787000Y-94997349D01*
X78273000Y-95037349D02*
X82727000Y-95037349D01*
X78335000Y-95077349D02*
X82665000Y-95077349D01*
X78399000Y-95117349D02*
X82601000Y-95117349D01*
X78466000Y-95157349D02*
X82534000Y-95157349D01*
X78536000Y-95197349D02*
X82464000Y-95197349D01*
X78610000Y-95237349D02*
X82390000Y-95237349D01*
X78687000Y-95277349D02*
X82313000Y-95277349D01*
X78769000Y-95317349D02*
X82231000Y-95317349D01*
X78856000Y-95357349D02*
X82144000Y-95357349D01*
X78948000Y-95397349D02*
X82052000Y-95397349D01*
X79047000Y-95437349D02*
X81953000Y-95437349D01*
X79154000Y-95477349D02*
X81846000Y-95477349D01*
X79272000Y-95517349D02*
X81728000Y-95517349D01*
X79403000Y-95557349D02*
X81597000Y-95557349D01*
X79553000Y-95597349D02*
X81447000Y-95597349D01*
X79732000Y-95637349D02*
X81268000Y-95637349D01*
X79967000Y-95677349D02*
X81033000Y-95677349D01*
X81540000Y-92317349D02*
X84517000Y-92317349D01*
X81540000Y-92357349D02*
X84509000Y-92357349D01*
X81540000Y-92397349D02*
X84502000Y-92397349D01*
X81540000Y-92437349D02*
X84493000Y-92437349D01*
X81540000Y-92477349D02*
X84485000Y-92477349D01*
X81540000Y-92517349D02*
X84476000Y-92517349D01*
X81540000Y-92557349D02*
X84467000Y-92557349D01*
X81540000Y-92597349D02*
X84457000Y-92597349D01*
X81540000Y-92637349D02*
X84447000Y-92637349D01*
X81540000Y-92677349D02*
X84436000Y-92677349D01*
X81540000Y-92717349D02*
X84425000Y-92717349D01*
X81540000Y-92757349D02*
X84413000Y-92757349D01*
X81540000Y-92797349D02*
X84401000Y-92797349D01*
X81540000Y-92837349D02*
X84389000Y-92837349D01*
X81540000Y-92877349D02*
X84376000Y-92877349D01*
X81540000Y-92917349D02*
X84363000Y-92917349D01*
X81540000Y-92957349D02*
X84349000Y-92957349D01*
X81540000Y-92997349D02*
X84335000Y-92997349D01*
X81540000Y-93037349D02*
X84320000Y-93037349D01*
X81540000Y-93077349D02*
X84305000Y-93077349D01*
X81540000Y-93117349D02*
X84289000Y-93117349D01*
X81540000Y-93157349D02*
X84273000Y-93157349D01*
X81540000Y-93197349D02*
X84257000Y-93197349D01*
X81540000Y-93237349D02*
X84240000Y-93237349D01*
X81540000Y-93277349D02*
X84222000Y-93277349D01*
X81540000Y-93317349D02*
X84204000Y-93317349D01*
X81540000Y-93357349D02*
X84185000Y-93357349D01*
X81540000Y-93397349D02*
X84166000Y-93397349D01*
X81540000Y-93437349D02*
X84146000Y-93437349D01*
X81540000Y-93477349D02*
X84126000Y-93477349D01*
X81540000Y-93517349D02*
X84105000Y-93517349D01*
X81540000Y-93557349D02*
X84084000Y-93557349D01*
X81540000Y-93597349D02*
X84062000Y-93597349D01*
X81540000Y-93637349D02*
X84039000Y-93637349D01*
X81540000Y-93677349D02*
X84016000Y-93677349D01*
X81540000Y-93717349D02*
X83993000Y-93717349D01*
X81540000Y-93757349D02*
X83968000Y-93757349D01*
X81540000Y-93797349D02*
X83943000Y-93797349D01*
X81540000Y-93837349D02*
X83918000Y-93837349D01*
X81540000Y-93877349D02*
X83892000Y-93877349D01*
X81540000Y-93917349D02*
X83865000Y-93917349D01*
X81540000Y-93957349D02*
X83837000Y-93957349D01*
X81540000Y-93997349D02*
X83809000Y-93997349D01*
X81540000Y-94037349D02*
X83780000Y-94037349D01*
X81540000Y-94077349D02*
X83750000Y-94077349D01*
X81540000Y-94117349D02*
X83719000Y-94117349D01*
X81540000Y-94157349D02*
X83688000Y-94157349D01*
X81540000Y-94197349D02*
X83656000Y-94197349D01*
X81540000Y-94237349D02*
X83623000Y-94237349D01*
X81540000Y-94277349D02*
X83589000Y-94277349D01*
X81540000Y-94317349D02*
X83555000Y-94317349D01*
X81540000Y-94357349D02*
X83519000Y-94357349D01*
X84620000Y-91597349D02*
G75*
G02*
X76380000Y-91597349I-4120000J0D01*
G01*
X76380000Y-91597349D02*
G75*
G02*
X84620000Y-91597349I4120000J0D01*
G01*
%TO.C,C2*%
X76420000Y-100750000D02*
X84580000Y-100750000D01*
X76420000Y-100790000D02*
X84580000Y-100790000D01*
X76421000Y-100830000D02*
X84579000Y-100830000D01*
X76422000Y-100870000D02*
X84578000Y-100870000D01*
X76423000Y-100910000D02*
X84577000Y-100910000D01*
X76425000Y-100950000D02*
X84575000Y-100950000D01*
X76427000Y-100990000D02*
X84573000Y-100990000D01*
X76430000Y-101030000D02*
X84570000Y-101030000D01*
X76432000Y-101070000D02*
X84568000Y-101070000D01*
X76436000Y-101110000D02*
X84564000Y-101110000D01*
X76439000Y-101150000D02*
X84561000Y-101150000D01*
X76444000Y-101190000D02*
X84556000Y-101190000D01*
X76448000Y-101230000D02*
X84552000Y-101230000D01*
X76453000Y-101270000D02*
X84547000Y-101270000D01*
X76458000Y-101310000D02*
X84542000Y-101310000D01*
X76464000Y-101350000D02*
X84536000Y-101350000D01*
X76470000Y-101390000D02*
X84530000Y-101390000D01*
X76477000Y-101430000D02*
X84523000Y-101430000D01*
X76483000Y-101470000D02*
X79460000Y-101470000D01*
X76491000Y-101510000D02*
X79460000Y-101510000D01*
X76498000Y-101550000D02*
X79460000Y-101550000D01*
X76507000Y-101590000D02*
X79460000Y-101590000D01*
X76515000Y-101630000D02*
X79460000Y-101630000D01*
X76524000Y-101670000D02*
X79460000Y-101670000D01*
X76533000Y-101710000D02*
X79460000Y-101710000D01*
X76543000Y-101750000D02*
X79460000Y-101750000D01*
X76553000Y-101790000D02*
X79460000Y-101790000D01*
X76564000Y-101830000D02*
X79460000Y-101830000D01*
X76575000Y-101870000D02*
X79460000Y-101870000D01*
X76587000Y-101910000D02*
X79460000Y-101910000D01*
X76599000Y-101950000D02*
X79460000Y-101950000D01*
X76611000Y-101990000D02*
X79460000Y-101990000D01*
X76624000Y-102030000D02*
X79460000Y-102030000D01*
X76637000Y-102070000D02*
X79460000Y-102070000D01*
X76651000Y-102110000D02*
X79460000Y-102110000D01*
X76665000Y-102150000D02*
X79460000Y-102150000D01*
X76680000Y-102190000D02*
X79460000Y-102190000D01*
X76695000Y-102230000D02*
X79460000Y-102230000D01*
X76711000Y-102270000D02*
X79460000Y-102270000D01*
X76727000Y-102310000D02*
X79460000Y-102310000D01*
X76743000Y-102350000D02*
X79460000Y-102350000D01*
X76760000Y-102390000D02*
X79460000Y-102390000D01*
X76778000Y-102430000D02*
X79460000Y-102430000D01*
X76796000Y-102470000D02*
X79460000Y-102470000D01*
X76815000Y-102510000D02*
X79460000Y-102510000D01*
X76834000Y-102550000D02*
X79460000Y-102550000D01*
X76854000Y-102590000D02*
X79460000Y-102590000D01*
X76874000Y-102630000D02*
X79460000Y-102630000D01*
X76895000Y-102670000D02*
X79460000Y-102670000D01*
X76916000Y-102710000D02*
X79460000Y-102710000D01*
X76938000Y-102750000D02*
X79460000Y-102750000D01*
X76961000Y-102790000D02*
X79460000Y-102790000D01*
X76984000Y-102830000D02*
X79460000Y-102830000D01*
X77007000Y-102870000D02*
X79460000Y-102870000D01*
X77032000Y-102910000D02*
X79460000Y-102910000D01*
X77057000Y-102950000D02*
X79460000Y-102950000D01*
X77082000Y-102990000D02*
X79460000Y-102990000D01*
X77108000Y-103030000D02*
X79460000Y-103030000D01*
X77135000Y-103070000D02*
X79460000Y-103070000D01*
X77163000Y-103110000D02*
X79460000Y-103110000D01*
X77191000Y-103150000D02*
X79460000Y-103150000D01*
X77220000Y-103190000D02*
X79460000Y-103190000D01*
X77250000Y-103230000D02*
X79460000Y-103230000D01*
X77281000Y-103270000D02*
X79460000Y-103270000D01*
X77312000Y-103310000D02*
X79460000Y-103310000D01*
X77344000Y-103350000D02*
X79460000Y-103350000D01*
X77377000Y-103390000D02*
X79460000Y-103390000D01*
X77411000Y-103430000D02*
X79460000Y-103430000D01*
X77445000Y-103470000D02*
X79460000Y-103470000D01*
X77481000Y-103510000D02*
X79460000Y-103510000D01*
X77518000Y-103550000D02*
X83482000Y-103550000D01*
X77555000Y-103590000D02*
X83445000Y-103590000D01*
X77594000Y-103630000D02*
X83406000Y-103630000D01*
X77633000Y-103670000D02*
X83367000Y-103670000D01*
X77674000Y-103710000D02*
X83326000Y-103710000D01*
X77716000Y-103750000D02*
X83284000Y-103750000D01*
X77759000Y-103790000D02*
X83241000Y-103790000D01*
X77785000Y-96740302D02*
X78585000Y-96740302D01*
X77804000Y-103830000D02*
X83196000Y-103830000D01*
X77849000Y-103870000D02*
X83151000Y-103870000D01*
X77896000Y-103910000D02*
X83104000Y-103910000D01*
X77945000Y-103950000D02*
X83055000Y-103950000D01*
X77995000Y-103990000D02*
X83005000Y-103990000D01*
X78047000Y-104030000D02*
X82953000Y-104030000D01*
X78100000Y-104070000D02*
X82900000Y-104070000D01*
X78156000Y-104110000D02*
X82844000Y-104110000D01*
X78185000Y-96340302D02*
X78185000Y-97140302D01*
X78213000Y-104150000D02*
X82787000Y-104150000D01*
X78273000Y-104190000D02*
X82727000Y-104190000D01*
X78335000Y-104230000D02*
X82665000Y-104230000D01*
X78399000Y-104270000D02*
X82601000Y-104270000D01*
X78466000Y-104310000D02*
X82534000Y-104310000D01*
X78536000Y-104350000D02*
X82464000Y-104350000D01*
X78610000Y-104390000D02*
X82390000Y-104390000D01*
X78687000Y-104430000D02*
X82313000Y-104430000D01*
X78769000Y-104470000D02*
X82231000Y-104470000D01*
X78856000Y-104510000D02*
X82144000Y-104510000D01*
X78948000Y-104550000D02*
X82052000Y-104550000D01*
X79047000Y-104590000D02*
X81953000Y-104590000D01*
X79154000Y-104630000D02*
X81846000Y-104630000D01*
X79272000Y-104670000D02*
X81728000Y-104670000D01*
X79403000Y-104710000D02*
X81597000Y-104710000D01*
X79553000Y-104750000D02*
X81447000Y-104750000D01*
X79732000Y-104790000D02*
X81268000Y-104790000D01*
X79967000Y-104830000D02*
X81033000Y-104830000D01*
X81540000Y-101470000D02*
X84517000Y-101470000D01*
X81540000Y-101510000D02*
X84509000Y-101510000D01*
X81540000Y-101550000D02*
X84502000Y-101550000D01*
X81540000Y-101590000D02*
X84493000Y-101590000D01*
X81540000Y-101630000D02*
X84485000Y-101630000D01*
X81540000Y-101670000D02*
X84476000Y-101670000D01*
X81540000Y-101710000D02*
X84467000Y-101710000D01*
X81540000Y-101750000D02*
X84457000Y-101750000D01*
X81540000Y-101790000D02*
X84447000Y-101790000D01*
X81540000Y-101830000D02*
X84436000Y-101830000D01*
X81540000Y-101870000D02*
X84425000Y-101870000D01*
X81540000Y-101910000D02*
X84413000Y-101910000D01*
X81540000Y-101950000D02*
X84401000Y-101950000D01*
X81540000Y-101990000D02*
X84389000Y-101990000D01*
X81540000Y-102030000D02*
X84376000Y-102030000D01*
X81540000Y-102070000D02*
X84363000Y-102070000D01*
X81540000Y-102110000D02*
X84349000Y-102110000D01*
X81540000Y-102150000D02*
X84335000Y-102150000D01*
X81540000Y-102190000D02*
X84320000Y-102190000D01*
X81540000Y-102230000D02*
X84305000Y-102230000D01*
X81540000Y-102270000D02*
X84289000Y-102270000D01*
X81540000Y-102310000D02*
X84273000Y-102310000D01*
X81540000Y-102350000D02*
X84257000Y-102350000D01*
X81540000Y-102390000D02*
X84240000Y-102390000D01*
X81540000Y-102430000D02*
X84222000Y-102430000D01*
X81540000Y-102470000D02*
X84204000Y-102470000D01*
X81540000Y-102510000D02*
X84185000Y-102510000D01*
X81540000Y-102550000D02*
X84166000Y-102550000D01*
X81540000Y-102590000D02*
X84146000Y-102590000D01*
X81540000Y-102630000D02*
X84126000Y-102630000D01*
X81540000Y-102670000D02*
X84105000Y-102670000D01*
X81540000Y-102710000D02*
X84084000Y-102710000D01*
X81540000Y-102750000D02*
X84062000Y-102750000D01*
X81540000Y-102790000D02*
X84039000Y-102790000D01*
X81540000Y-102830000D02*
X84016000Y-102830000D01*
X81540000Y-102870000D02*
X83993000Y-102870000D01*
X81540000Y-102910000D02*
X83968000Y-102910000D01*
X81540000Y-102950000D02*
X83943000Y-102950000D01*
X81540000Y-102990000D02*
X83918000Y-102990000D01*
X81540000Y-103030000D02*
X83892000Y-103030000D01*
X81540000Y-103070000D02*
X83865000Y-103070000D01*
X81540000Y-103110000D02*
X83837000Y-103110000D01*
X81540000Y-103150000D02*
X83809000Y-103150000D01*
X81540000Y-103190000D02*
X83780000Y-103190000D01*
X81540000Y-103230000D02*
X83750000Y-103230000D01*
X81540000Y-103270000D02*
X83719000Y-103270000D01*
X81540000Y-103310000D02*
X83688000Y-103310000D01*
X81540000Y-103350000D02*
X83656000Y-103350000D01*
X81540000Y-103390000D02*
X83623000Y-103390000D01*
X81540000Y-103430000D02*
X83589000Y-103430000D01*
X81540000Y-103470000D02*
X83555000Y-103470000D01*
X81540000Y-103510000D02*
X83519000Y-103510000D01*
X84620000Y-100750000D02*
G75*
G02*
X76380000Y-100750000I-4120000J0D01*
G01*
X76380000Y-100750000D02*
G75*
G02*
X84620000Y-100750000I4120000J0D01*
G01*
%TO.C,A1*%
X127260000Y-82727939D02*
X127260000Y-78890000D01*
X127260000Y-83652061D02*
X127260000Y-85290000D01*
X127260000Y-92490000D02*
X127260000Y-94127939D01*
X127260000Y-98890000D02*
X127260000Y-95052061D01*
X127323000Y-78620000D02*
X178417000Y-78620000D01*
X128173520Y-81380000D02*
X127260000Y-81380000D01*
X128173520Y-96400000D02*
X127260000Y-96400000D01*
X173960000Y-84990000D02*
X173960000Y-92790000D01*
X175173520Y-81380000D02*
X130566480Y-81380000D01*
X175173520Y-96400000D02*
X130566480Y-96400000D01*
X175176000Y-84990000D02*
X173960000Y-84990000D01*
X175176000Y-92790000D02*
X173960000Y-92790000D01*
X176200000Y-99820000D02*
X177800000Y-99820000D01*
X177870000Y-78280000D02*
X127870000Y-78280000D01*
X177870000Y-99500000D02*
X127870000Y-99500000D01*
X178417000Y-99160000D02*
X127323000Y-99160000D01*
X178480000Y-78890000D02*
X178480000Y-81380000D01*
X178480000Y-81380000D02*
X177566480Y-81380000D01*
X178480000Y-82727939D02*
X178480000Y-81380000D01*
X178480000Y-84655000D02*
X178480000Y-83652061D01*
X178480000Y-93125000D02*
X178480000Y-84655000D01*
X178480000Y-94127939D02*
X178480000Y-93125000D01*
X178480000Y-96400000D02*
X177566480Y-96400000D01*
X178480000Y-96400000D02*
X178480000Y-95052060D01*
X178480000Y-98890000D02*
X178480000Y-96400000D01*
X178960000Y-84780000D02*
X178960000Y-84990000D01*
X178960000Y-84990000D02*
X177564000Y-84990000D01*
X178960000Y-92790000D02*
X177564000Y-92790000D01*
X178960000Y-93000000D02*
X178960000Y-92790000D01*
X179780000Y-84780000D02*
X178960000Y-84780000D01*
X179780000Y-93000000D02*
X178960000Y-93000000D01*
X179780000Y-93000000D02*
X179780000Y-84780000D01*
X177870000Y-78280000D02*
G75*
G02*
X178480000Y-78890000I0J-610000D01*
G01*
X178480000Y-98890000D02*
G75*
G02*
X177870000Y-99500000I-610000J0D01*
G01*
%TD*%
M02*
