%TF.GenerationSoftware,KiCad,Pcbnew,9.0.7*%
%TF.CreationDate,2026-02-12T14:24:41+09:00*%
%TF.ProjectId,ASW_E44s_2.0,4153575f-4534-4347-935f-322e302e6b69,rev?*%
%TF.SameCoordinates,Original*%
%TF.FileFunction,Paste,Top*%
%TF.FilePolarity,Positive*%
%FSLAX46Y46*%
G04 Gerber Fmt 4.6, Leading zero omitted, Abs format (unit mm)*
G04 Created by KiCad (PCBNEW 9.0.7) date 2026-02-12 14:24:41*
%MOMM*%
%LPD*%
G01*
G04 APERTURE LIST*
G04 Aperture macros list*
%AMRoundRect*
0 Rectangle with rounded corners*
0 $1 Rounding radius*
0 $2 $3 $4 $5 $6 $7 $8 $9 X,Y pos of 4 corners*
0 Add a 4 corners polygon primitive as box body*
4,1,4,$2,$3,$4,$5,$6,$7,$8,$9,$2,$3,0*
0 Add four circle primitives for the rounded corners*
1,1,$1+$1,$2,$3*
1,1,$1+$1,$4,$5*
1,1,$1+$1,$6,$7*
1,1,$1+$1,$8,$9*
0 Add four rect primitives between the rounded corners*
20,1,$1+$1,$2,$3,$4,$5,0*
20,1,$1+$1,$4,$5,$6,$7,0*
20,1,$1+$1,$6,$7,$8,$9,0*
20,1,$1+$1,$8,$9,$2,$3,0*%
G04 Aperture macros list end*
%ADD10R,0.700000X0.700000*%
%ADD11RoundRect,0.200000X-0.200000X-0.275000X0.200000X-0.275000X0.200000X0.275000X-0.200000X0.275000X0*%
%ADD12RoundRect,0.200000X0.200000X0.275000X-0.200000X0.275000X-0.200000X-0.275000X0.200000X-0.275000X0*%
%ADD13RoundRect,0.225000X0.225000X0.250000X-0.225000X0.250000X-0.225000X-0.250000X0.225000X-0.250000X0*%
%ADD14RoundRect,0.225000X-0.225000X-0.250000X0.225000X-0.250000X0.225000X0.250000X-0.225000X0.250000X0*%
%ADD15RoundRect,0.200000X0.275000X-0.200000X0.275000X0.200000X-0.275000X0.200000X-0.275000X-0.200000X0*%
%ADD16RoundRect,0.150000X-0.587500X-0.150000X0.587500X-0.150000X0.587500X0.150000X-0.587500X0.150000X0*%
%ADD17RoundRect,0.225000X-0.225000X-0.375000X0.225000X-0.375000X0.225000X0.375000X-0.225000X0.375000X0*%
G04 APERTURE END LIST*
D10*
%TO.C,D9*%
X82215000Y-82500000D03*
X82215000Y-83600000D03*
X80385000Y-83600000D03*
X80385000Y-82500000D03*
%TD*%
%TO.C,D2*%
X131720000Y-77100000D03*
X131720000Y-76000000D03*
X129890000Y-76000000D03*
X129890000Y-77100000D03*
%TD*%
%TO.C,D3*%
X146110000Y-77100000D03*
X146110000Y-76000000D03*
X144280000Y-76000000D03*
X144280000Y-77100000D03*
%TD*%
D11*
%TO.C,R2*%
X132350000Y-101500000D03*
X134000000Y-101500000D03*
%TD*%
D10*
%TO.C,D5*%
X183085000Y-101000000D03*
X183085000Y-102100000D03*
X184915000Y-102100000D03*
X184915000Y-101000000D03*
%TD*%
D12*
%TO.C,R14*%
X101825000Y-94500000D03*
X100175000Y-94500000D03*
%TD*%
D13*
%TO.C,C10*%
X158275000Y-101500000D03*
X156725000Y-101500000D03*
%TD*%
D10*
%TO.C,D4*%
X160500000Y-77100000D03*
X160500000Y-76000000D03*
X158670000Y-76000000D03*
X158670000Y-77100000D03*
%TD*%
D14*
%TO.C,C9*%
X125535000Y-101500000D03*
X127085000Y-101500000D03*
%TD*%
D12*
%TO.C,R13*%
X99825000Y-92000000D03*
X98175000Y-92000000D03*
%TD*%
D15*
%TO.C,R18*%
X158562500Y-91975000D03*
X158562500Y-90325000D03*
%TD*%
D14*
%TO.C,C3*%
X122225000Y-76500000D03*
X123775000Y-76500000D03*
%TD*%
D15*
%TO.C,R17*%
X158562500Y-88975000D03*
X158562500Y-87325000D03*
%TD*%
D10*
%TO.C,D7*%
X121808333Y-101000000D03*
X121808333Y-102100000D03*
X123638333Y-102100000D03*
X123638333Y-101000000D03*
%TD*%
D13*
%TO.C,C4*%
X169000000Y-105000000D03*
X167450000Y-105000000D03*
%TD*%
D12*
%TO.C,R15*%
X111325000Y-76500000D03*
X109675000Y-76500000D03*
%TD*%
D11*
%TO.C,R10*%
X140223333Y-107647500D03*
X141873333Y-107647500D03*
%TD*%
D15*
%TO.C,R7*%
X80450000Y-111625000D03*
X80450000Y-109975000D03*
%TD*%
D11*
%TO.C,R3*%
X165675000Y-101500000D03*
X167325000Y-101500000D03*
%TD*%
D13*
%TO.C,C8*%
X93275000Y-98000000D03*
X91725000Y-98000000D03*
%TD*%
D14*
%TO.C,C11*%
X178050000Y-101600000D03*
X179600000Y-101600000D03*
%TD*%
D11*
%TO.C,R8*%
X109556667Y-107647500D03*
X111206667Y-107647500D03*
%TD*%
D16*
%TO.C,Q1*%
X161625000Y-89050000D03*
X161625000Y-90950000D03*
X163500000Y-90000000D03*
%TD*%
D14*
%TO.C,C5*%
X134725000Y-76500000D03*
X136275000Y-76500000D03*
%TD*%
D10*
%TO.C,D1*%
X117330000Y-77100000D03*
X117330000Y-76000000D03*
X115500000Y-76000000D03*
X115500000Y-77100000D03*
%TD*%
D14*
%TO.C,C7*%
X162490000Y-76332738D03*
X164040000Y-76332738D03*
%TD*%
D11*
%TO.C,R5*%
X102715000Y-76332738D03*
X104365000Y-76332738D03*
%TD*%
%TO.C,R4*%
X191850000Y-101500000D03*
X193500000Y-101500000D03*
%TD*%
D17*
%TO.C,D10*%
X165350000Y-107000000D03*
X168650000Y-107000000D03*
%TD*%
D11*
%TO.C,R1*%
X101850000Y-101500000D03*
X103500000Y-101500000D03*
%TD*%
%TO.C,R6*%
X78890000Y-108500000D03*
X80540000Y-108500000D03*
%TD*%
%TO.C,R16*%
X140223333Y-112720000D03*
X141873333Y-112720000D03*
%TD*%
D13*
%TO.C,C12*%
X81500000Y-85500000D03*
X79950000Y-85500000D03*
%TD*%
D11*
%TO.C,R12*%
X170890000Y-112720000D03*
X172540000Y-112720000D03*
%TD*%
D14*
%TO.C,C6*%
X149725000Y-76500000D03*
X151275000Y-76500000D03*
%TD*%
D11*
%TO.C,R20*%
X134075000Y-92800000D03*
X135725000Y-92800000D03*
%TD*%
%TO.C,R19*%
X130575000Y-92800000D03*
X132225000Y-92800000D03*
%TD*%
D10*
%TO.C,D6*%
X152446667Y-101000000D03*
X152446667Y-102100000D03*
X154276667Y-102100000D03*
X154276667Y-101000000D03*
%TD*%
%TO.C,D8*%
X91170000Y-101000000D03*
X91170000Y-102100000D03*
X93000000Y-102100000D03*
X93000000Y-101000000D03*
%TD*%
D11*
%TO.C,R11*%
X170890000Y-107647500D03*
X172540000Y-107647500D03*
%TD*%
%TO.C,R9*%
X109556667Y-113500000D03*
X111206667Y-113500000D03*
%TD*%
M02*
