M48
; DRILL file {KiCad 9.0.7} date 2026-02-12T14:24:54+0900
; FORMAT={-:-/ absolute / metric / decimal}
; #@! TF.CreationDate,2026-02-12T14:24:54+09:00
; #@! TF.GenerationSoftware,Kicad,Pcbnew,9.0.7
; #@! TF.FileFunction,Plated,1,2,PTH
FMAT,2
METRIC
; #@! TA.AperFunction,Plated,PTH,ViaDrill
T1C0.300
; #@! TA.AperFunction,Plated,PTH,ComponentDrill
T2C0.700
; #@! TA.AperFunction,Plated,PTH,ComponentDrill
T3C0.750
; #@! TA.AperFunction,Plated,PTH,ComponentDrill
T4C0.800
; #@! TA.AperFunction,Plated,PTH,ComponentDrill
T5C1.000
; #@! TA.AperFunction,Plated,PTH,ComponentDrill
T6C1.500
%
G90
G05
T1
X79.275Y-83.875
X82.5Y-87.5
X83.5Y-83.0
X84.0Y-96.5
X86.5Y-101.0
X88.0Y-103.0
X88.0Y-113.0
X89.0Y-100.0
X91.5Y-96.0
X92.5Y-86.0
X95.0Y-96.0
X96.0Y-97.5
X97.5Y-78.0
X101.0Y-93.0
X101.0Y-96.5
X101.0Y-101.5
X101.5Y-90.5
X102.0Y-82.0
X107.0Y-101.5
X108.25Y-103.025
X108.675Y-96.15
X108.9Y-89.05
X113.0Y-114.5
X113.425Y-80.85
X113.425Y-89.05
X113.5Y-76.625
X114.0Y-111.5
X117.0Y-97.5
X119.5Y-104.0
X120.0Y-75.52
X122.25Y-87.4
X125.5Y-76.5
X126.0Y-103.0
X126.0Y-106.0
X126.265Y-82.6
X128.5Y-76.625
X128.75Y-92.0
X129.225Y-84.325
X130.0Y-88.5
X131.825Y-110.025
X132.4Y-84.325
X133.0Y-98.5
X133.125Y-92.9
X134.0Y-82.0
X134.5Y-89.8
X134.6Y-87.0
X136.5Y-85.0
X136.5Y-86.2
X136.5Y-87.48
X137.5Y-76.5
X137.55Y-89.85
X138.1Y-102.1
X139.5Y-75.52
X142.5Y-76.625
X142.5Y-102.5
X144.0Y-102.0
X146.7Y-95.25
X146.8Y-92.1
X147.35Y-82.575
X148.5Y-75.52
X151.0Y-95.5
X151.7Y-92.1
X152.7Y-95.5
X153.0Y-76.5
X154.2Y-85.0
X154.2Y-90.4
X157.0Y-76.625
X157.6Y-94.8
X160.0Y-91.2
X160.275Y-105.0
X161.5Y-76.0
X163.8Y-87.0
X164.35Y-105.2
X166.5Y-78.0
X167.5Y-76.0
X169.0Y-101.5
X169.6Y-94.4
X170.5Y-103.5
X171.5Y-83.5
X174.5Y-111.5
X176.575Y-101.7
X176.6Y-83.4
X181.0Y-101.5
X182.0Y-101.5
X186.0Y-102.0
X189.0Y-115.5
X193.5Y-94.0
X194.8Y-95.6
T3
X164.5Y-113.05
X166.5Y-113.05
T4
X80.5Y-89.847
X80.5Y-93.347
X80.5Y-99.0
X80.5Y-102.5
T5
X85.04Y-107.72
X85.04Y-110.22
X85.04Y-112.72
X85.29Y-80.72
X85.29Y-83.22
X85.29Y-85.72
X99.54Y-107.72
X99.54Y-112.72
X99.79Y-80.72
X99.79Y-85.72
X106.54Y-80.06
X106.54Y-82.6
X106.54Y-85.14
X106.54Y-87.68
X106.54Y-90.22
X106.54Y-92.76
X106.54Y-95.3
X106.54Y-97.84
X115.29Y-107.72
X115.29Y-110.22
X115.29Y-112.72
X128.74Y-80.0
X128.74Y-97.78
X129.79Y-107.72
X129.79Y-112.72
X131.28Y-80.0
X131.28Y-97.78
X133.82Y-80.0
X133.82Y-97.78
X136.36Y-80.0
X136.36Y-97.78
X138.9Y-80.0
X138.9Y-97.78
X141.44Y-80.0
X141.44Y-97.78
X143.98Y-80.0
X143.98Y-97.78
X145.79Y-107.72
X145.79Y-110.22
X145.79Y-112.72
X146.52Y-80.0
X146.52Y-97.78
X149.06Y-80.0
X149.06Y-97.78
X151.6Y-80.0
X151.6Y-97.78
X154.14Y-80.0
X154.14Y-97.78
X156.68Y-80.0
X156.68Y-97.78
X159.22Y-80.0
X159.22Y-97.78
X160.29Y-107.72
X160.29Y-112.72
X161.76Y-80.0
X161.76Y-97.78
X164.3Y-80.0
X164.3Y-97.78
X166.84Y-80.0
X166.84Y-97.78
X169.38Y-80.0
X169.38Y-97.78
X171.92Y-80.0
X171.92Y-97.78
X174.46Y-80.0
X174.46Y-97.78
X176.29Y-107.72
X176.29Y-110.22
X176.29Y-112.72
X177.0Y-80.0
X177.0Y-97.78
X190.79Y-107.72
X190.79Y-112.72
T2
G00X119.975Y-79.525
M15
G01X119.975Y-80.325
M16
G05
G00X119.975Y-82.525
M15
G01X119.975Y-83.325
M16
G05
G00X119.975Y-86.525
M15
G01X119.975Y-87.325
M16
G05
G00X124.375Y-87.525
M15
G01X124.375Y-88.325
M16
G05
T6
G00X91.89Y-104.62
M15
G01X93.19Y-104.62
M16
G05
G00X91.89Y-115.82
M15
G01X93.19Y-115.82
M16
G05
G00X92.14Y-77.62
M15
G01X93.44Y-77.62
M16
G05
G00X92.14Y-88.82
M15
G01X93.44Y-88.82
M16
G05
G00X122.14Y-104.62
M15
G01X123.44Y-104.62
M16
G05
G00X122.14Y-115.82
M15
G01X123.44Y-115.82
M16
G05
G00X152.64Y-104.62
M15
G01X153.94Y-104.62
M16
G05
G00X152.64Y-115.82
M15
G01X153.94Y-115.82
M16
G05
G00X183.14Y-104.62
M15
G01X184.44Y-104.62
M16
G05
G00X183.14Y-115.82
M15
G01X184.44Y-115.82
M16
G05
M30
