%TF.GenerationSoftware,KiCad,Pcbnew,9.0.7*%
%TF.CreationDate,2026-02-12T14:24:41+09:00*%
%TF.ProjectId,ASW_E44s_2.0,4153575f-4534-4347-935f-322e302e6b69,rev?*%
%TF.SameCoordinates,Original*%
%TF.FileFunction,Soldermask,Top*%
%TF.FilePolarity,Negative*%
%FSLAX46Y46*%
G04 Gerber Fmt 4.6, Leading zero omitted, Abs format (unit mm)*
G04 Created by KiCad (PCBNEW 9.0.7) date 2026-02-12 14:24:41*
%MOMM*%
%LPD*%
G01*
G04 APERTURE LIST*
G04 Aperture macros list*
%AMRoundRect*
0 Rectangle with rounded corners*
0 $1 Rounding radius*
0 $2 $3 $4 $5 $6 $7 $8 $9 X,Y pos of 4 corners*
0 Add a 4 corners polygon primitive as box body*
4,1,4,$2,$3,$4,$5,$6,$7,$8,$9,$2,$3,0*
0 Add four circle primitives for the rounded corners*
1,1,$1+$1,$2,$3*
1,1,$1+$1,$4,$5*
1,1,$1+$1,$6,$7*
1,1,$1+$1,$8,$9*
0 Add four rect primitives between the rounded corners*
20,1,$1+$1,$2,$3,$4,$5,0*
20,1,$1+$1,$4,$5,$6,$7,0*
20,1,$1+$1,$6,$7,$8,$9,0*
20,1,$1+$1,$8,$9,$2,$3,0*%
%AMFreePoly0*
4,1,37,0.603843,0.796157,0.639018,0.796157,0.711114,0.766294,0.766294,0.711114,0.796157,0.639018,0.796157,0.603843,0.800000,0.600000,0.800000,-0.600000,0.796157,-0.603843,0.796157,-0.639018,0.766294,-0.711114,0.711114,-0.766294,0.639018,-0.796157,0.603843,-0.796157,0.600000,-0.800000,0.000000,-0.800000,0.000000,-0.796148,-0.078414,-0.796148,-0.232228,-0.765552,-0.377117,-0.705537,
-0.507515,-0.618408,-0.618408,-0.507515,-0.705537,-0.377117,-0.765552,-0.232228,-0.796148,-0.078414,-0.796148,0.078414,-0.765552,0.232228,-0.705537,0.377117,-0.618408,0.507515,-0.507515,0.618408,-0.377117,0.705537,-0.232228,0.765552,-0.078414,0.796148,0.000000,0.796148,0.000000,0.800000,0.600000,0.800000,0.603843,0.796157,0.603843,0.796157,$1*%
%AMFreePoly1*
4,1,37,0.000000,0.796148,0.078414,0.796148,0.232228,0.765552,0.377117,0.705537,0.507515,0.618408,0.618408,0.507515,0.705537,0.377117,0.765552,0.232228,0.796148,0.078414,0.796148,-0.078414,0.765552,-0.232228,0.705537,-0.377117,0.618408,-0.507515,0.507515,-0.618408,0.377117,-0.705537,0.232228,-0.765552,0.078414,-0.796148,0.000000,-0.796148,0.000000,-0.800000,-0.600000,-0.800000,
-0.603843,-0.796157,-0.639018,-0.796157,-0.711114,-0.766294,-0.766294,-0.711114,-0.796157,-0.639018,-0.796157,-0.603843,-0.800000,-0.600000,-0.800000,0.600000,-0.796157,0.603843,-0.796157,0.639018,-0.766294,0.711114,-0.711114,0.766294,-0.639018,0.796157,-0.603843,0.796157,-0.600000,0.800000,0.000000,0.800000,0.000000,0.796148,0.000000,0.796148,$1*%
G04 Aperture macros list end*
%ADD10R,0.700000X0.700000*%
%ADD11C,2.200000*%
%ADD12O,1.400000X2.200000*%
%ADD13R,1.700000X1.700000*%
%ADD14C,1.700000*%
%ADD15RoundRect,0.200000X-0.200000X-0.275000X0.200000X-0.275000X0.200000X0.275000X-0.200000X0.275000X0*%
%ADD16R,2.000000X2.000000*%
%ADD17C,2.000000*%
%ADD18R,3.200000X2.000000*%
%ADD19RoundRect,0.200000X0.200000X0.275000X-0.200000X0.275000X-0.200000X-0.275000X0.200000X-0.275000X0*%
%ADD20RoundRect,0.225000X0.225000X0.250000X-0.225000X0.250000X-0.225000X-0.250000X0.225000X-0.250000X0*%
%ADD21RoundRect,0.225000X-0.225000X-0.250000X0.225000X-0.250000X0.225000X0.250000X-0.225000X0.250000X0*%
%ADD22RoundRect,0.200000X0.275000X-0.200000X0.275000X0.200000X-0.275000X0.200000X-0.275000X-0.200000X0*%
%ADD23RoundRect,0.150000X-0.587500X-0.150000X0.587500X-0.150000X0.587500X0.150000X-0.587500X0.150000X0*%
%ADD24RoundRect,0.225000X-0.225000X-0.375000X0.225000X-0.375000X0.225000X0.375000X-0.225000X0.375000X0*%
%ADD25RoundRect,0.250000X-0.350000X-0.625000X0.350000X-0.625000X0.350000X0.625000X-0.350000X0.625000X0*%
%ADD26O,1.200000X1.750000*%
%ADD27RoundRect,0.250000X-0.550000X0.550000X-0.550000X-0.550000X0.550000X-0.550000X0.550000X0.550000X0*%
%ADD28C,1.600000*%
%ADD29RoundRect,0.200000X0.600000X-0.600000X0.600000X0.600000X-0.600000X0.600000X-0.600000X-0.600000X0*%
%ADD30FreePoly0,90.000000*%
%ADD31FreePoly1,90.000000*%
G04 APERTURE END LIST*
D10*
%TO.C,D9*%
X82215000Y-82500000D03*
X82215000Y-83600000D03*
X80385000Y-83600000D03*
X80385000Y-82500000D03*
%TD*%
D11*
%TO.C,*%
X133400000Y-115050000D03*
%TD*%
%TO.C,REF\u002A\u002A*%
X194925000Y-77175000D03*
%TD*%
%TO.C,REF\u002A\u002A*%
X194950000Y-115650000D03*
%TD*%
%TO.C,REF\u002A\u002A*%
X78450000Y-115650000D03*
%TD*%
%TO.C,REF\u002A\u002A*%
X78500000Y-77200000D03*
%TD*%
D12*
%TO.C,J3*%
X119975000Y-82925000D03*
X119975000Y-79925000D03*
X124375000Y-87925000D03*
X119975000Y-86925000D03*
%TD*%
D10*
%TO.C,D2*%
X131720000Y-77100000D03*
X131720000Y-76000000D03*
X129890000Y-76000000D03*
X129890000Y-77100000D03*
%TD*%
D13*
%TO.C,J1*%
X106540000Y-97840000D03*
D14*
X106540000Y-95300000D03*
X106540000Y-92760000D03*
X106540000Y-90220000D03*
X106540000Y-87680000D03*
X106540000Y-85140000D03*
X106540000Y-82600000D03*
X106540000Y-80060000D03*
%TD*%
D10*
%TO.C,D3*%
X146110000Y-77100000D03*
X146110000Y-76000000D03*
X144280000Y-76000000D03*
X144280000Y-77100000D03*
%TD*%
D15*
%TO.C,R2*%
X132350000Y-101500000D03*
X134000000Y-101500000D03*
%TD*%
D10*
%TO.C,D5*%
X183085000Y-101000000D03*
X183085000Y-102100000D03*
X184915000Y-102100000D03*
X184915000Y-101000000D03*
%TD*%
D16*
%TO.C,Enc5*%
X85290000Y-80720000D03*
D17*
X85290000Y-85720000D03*
X85290000Y-83220000D03*
D18*
X92790000Y-77620000D03*
X92790000Y-88820000D03*
D17*
X99790000Y-85720000D03*
X99790000Y-80720000D03*
%TD*%
D19*
%TO.C,R14*%
X101825000Y-94500000D03*
X100175000Y-94500000D03*
%TD*%
D16*
%TO.C,Enc4*%
X176290000Y-107720000D03*
D17*
X176290000Y-112720000D03*
X176290000Y-110220000D03*
D18*
X183790000Y-104620000D03*
X183790000Y-115820000D03*
D17*
X190790000Y-112720000D03*
X190790000Y-107720000D03*
%TD*%
D20*
%TO.C,C10*%
X158275000Y-101500000D03*
X156725000Y-101500000D03*
%TD*%
D10*
%TO.C,D4*%
X160500000Y-77100000D03*
X160500000Y-76000000D03*
X158670000Y-76000000D03*
X158670000Y-77100000D03*
%TD*%
D21*
%TO.C,C9*%
X125535000Y-101500000D03*
X127085000Y-101500000D03*
%TD*%
D19*
%TO.C,R13*%
X99825000Y-92000000D03*
X98175000Y-92000000D03*
%TD*%
D22*
%TO.C,R18*%
X158562500Y-91975000D03*
X158562500Y-90325000D03*
%TD*%
D21*
%TO.C,C3*%
X122225000Y-76500000D03*
X123775000Y-76500000D03*
%TD*%
D22*
%TO.C,R17*%
X158562500Y-88975000D03*
X158562500Y-87325000D03*
%TD*%
D10*
%TO.C,D7*%
X121808333Y-101000000D03*
X121808333Y-102100000D03*
X123638333Y-102100000D03*
X123638333Y-101000000D03*
%TD*%
D16*
%TO.C,Enc1*%
X85040000Y-107720000D03*
D17*
X85040000Y-112720000D03*
X85040000Y-110220000D03*
D18*
X92540000Y-104620000D03*
X92540000Y-115820000D03*
D17*
X99540000Y-112720000D03*
X99540000Y-107720000D03*
%TD*%
D20*
%TO.C,C4*%
X169000000Y-105000000D03*
X167450000Y-105000000D03*
%TD*%
D19*
%TO.C,R15*%
X111325000Y-76500000D03*
X109675000Y-76500000D03*
%TD*%
D15*
%TO.C,R10*%
X140223333Y-107647500D03*
X141873333Y-107647500D03*
%TD*%
D16*
%TO.C,Enc3*%
X145790000Y-107720000D03*
D17*
X145790000Y-112720000D03*
X145790000Y-110220000D03*
D18*
X153290000Y-104620000D03*
X153290000Y-115820000D03*
D17*
X160290000Y-112720000D03*
X160290000Y-107720000D03*
%TD*%
D22*
%TO.C,R7*%
X80450000Y-111625000D03*
X80450000Y-109975000D03*
%TD*%
D15*
%TO.C,R3*%
X165675000Y-101500000D03*
X167325000Y-101500000D03*
%TD*%
D20*
%TO.C,C8*%
X93275000Y-98000000D03*
X91725000Y-98000000D03*
%TD*%
D21*
%TO.C,C11*%
X178050000Y-101600000D03*
X179600000Y-101600000D03*
%TD*%
D15*
%TO.C,R8*%
X109556667Y-107647500D03*
X111206667Y-107647500D03*
%TD*%
D23*
%TO.C,Q1*%
X161625000Y-89050000D03*
X161625000Y-90950000D03*
X163500000Y-90000000D03*
%TD*%
D21*
%TO.C,C5*%
X134725000Y-76500000D03*
X136275000Y-76500000D03*
%TD*%
D10*
%TO.C,D1*%
X117330000Y-77100000D03*
X117330000Y-76000000D03*
X115500000Y-76000000D03*
X115500000Y-77100000D03*
%TD*%
D21*
%TO.C,C7*%
X162490000Y-76332738D03*
X164040000Y-76332738D03*
%TD*%
D15*
%TO.C,R5*%
X102715000Y-76332738D03*
X104365000Y-76332738D03*
%TD*%
%TO.C,R4*%
X191850000Y-101500000D03*
X193500000Y-101500000D03*
%TD*%
D24*
%TO.C,D10*%
X165350000Y-107000000D03*
X168650000Y-107000000D03*
%TD*%
D15*
%TO.C,R1*%
X101850000Y-101500000D03*
X103500000Y-101500000D03*
%TD*%
%TO.C,R6*%
X78890000Y-108500000D03*
X80540000Y-108500000D03*
%TD*%
%TO.C,R16*%
X140223333Y-112720000D03*
X141873333Y-112720000D03*
%TD*%
D20*
%TO.C,C12*%
X81500000Y-85500000D03*
X79950000Y-85500000D03*
%TD*%
D15*
%TO.C,R12*%
X170890000Y-112720000D03*
X172540000Y-112720000D03*
%TD*%
D21*
%TO.C,C6*%
X149725000Y-76500000D03*
X151275000Y-76500000D03*
%TD*%
D15*
%TO.C,R20*%
X134075000Y-92800000D03*
X135725000Y-92800000D03*
%TD*%
%TO.C,R19*%
X130575000Y-92800000D03*
X132225000Y-92800000D03*
%TD*%
D10*
%TO.C,D6*%
X152446667Y-101000000D03*
X152446667Y-102100000D03*
X154276667Y-102100000D03*
X154276667Y-101000000D03*
%TD*%
%TO.C,D8*%
X91170000Y-101000000D03*
X91170000Y-102100000D03*
X93000000Y-102100000D03*
X93000000Y-101000000D03*
%TD*%
D16*
%TO.C,Enc2*%
X115290000Y-107720000D03*
D17*
X115290000Y-112720000D03*
X115290000Y-110220000D03*
D18*
X122790000Y-104620000D03*
X122790000Y-115820000D03*
D17*
X129790000Y-112720000D03*
X129790000Y-107720000D03*
%TD*%
D15*
%TO.C,R11*%
X170890000Y-107647500D03*
X172540000Y-107647500D03*
%TD*%
%TO.C,R9*%
X109556667Y-113500000D03*
X111206667Y-113500000D03*
%TD*%
D25*
%TO.C,J2*%
X164500000Y-113050000D03*
D26*
X166500000Y-113050000D03*
%TD*%
D27*
%TO.C,C1*%
X80500000Y-89847349D03*
D28*
X80500000Y-93347349D03*
%TD*%
D27*
%TO.C,C2*%
X80500000Y-99000000D03*
D28*
X80500000Y-102500000D03*
%TD*%
D29*
%TO.C,A1*%
X177000000Y-97780000D03*
D28*
X174460000Y-97780000D03*
D30*
X171920000Y-97780000D03*
D28*
X169380000Y-97780000D03*
X166840000Y-97780000D03*
X164300000Y-97780000D03*
X161760000Y-97780000D03*
D30*
X159220000Y-97780000D03*
D28*
X156680000Y-97780000D03*
X154140000Y-97780000D03*
X151600000Y-97780000D03*
X149060000Y-97780000D03*
D30*
X146520000Y-97780000D03*
D28*
X143980000Y-97780000D03*
X141440000Y-97780000D03*
X138900000Y-97780000D03*
X136360000Y-97780000D03*
D30*
X133820000Y-97780000D03*
D28*
X131280000Y-97780000D03*
X128740000Y-97780000D03*
X128740000Y-80000000D03*
X131280000Y-80000000D03*
D31*
X133820000Y-80000000D03*
D28*
X136360000Y-80000000D03*
X138900000Y-80000000D03*
X141440000Y-80000000D03*
X143980000Y-80000000D03*
D31*
X146520000Y-80000000D03*
D28*
X149060000Y-80000000D03*
X151600000Y-80000000D03*
X154140000Y-80000000D03*
X156680000Y-80000000D03*
D31*
X159220000Y-80000000D03*
D28*
X161760000Y-80000000D03*
X164300000Y-80000000D03*
X166840000Y-80000000D03*
X169380000Y-80000000D03*
D31*
X171920000Y-80000000D03*
D28*
X174460000Y-80000000D03*
X177000000Y-80000000D03*
%TD*%
M02*
